<?xml version="1.0" encoding="UTF-8"?>
<svg width="128pt" height="128pt" version="1.1" viewBox="0 0 128 128" xmlns="http://www.w3.org/2000/svg">
 <path d="m39.395 17.133h-4.9297c-0.36328 0-0.75781 0.21094-0.75781 0.54297v8.9258c0 0.33203 0.39062 0.54297 0.75781 0.54297l25.012-0.007812c0.36328 0 0.75781-0.21094 0.75781-0.54297l-0.003906-8.9219c0-0.33203-0.39062-0.54297-0.75781-0.54297h-5.2617l0.003906 0.003906c-0.48047-0.003906-0.94141-0.20703-1.2695-0.55859-0.32812-0.35156-0.49609-0.82422-0.46484-1.3047 0.20312-3.043-2.5391-5.3477-5.6719-5.3477-2.957-0.16797-5.4961 2.082-5.6797 5.0391l0.015625 0.42187v0.003907c0 0.46094-0.18359 0.90625-0.51172 1.2344-0.32812 0.32812-0.76953 0.51172-1.2344 0.51172zm-19.281 83.219 7.2969 6.9219v-6.8359l-7.2969-0.082031zm15.238-60.031h-10.152v10.152h10.152zm-11.898-3.4805h13.641c0.46484 0 0.91016 0.18359 1.2383 0.51172 0.32422 0.32422 0.50781 0.76953 0.50781 1.2344v13.637c0 0.96484-0.78125 1.7461-1.7461 1.7461h-13.641c-0.96484 0-1.7461-0.78125-1.7461-1.7461v-13.637c0-0.96484 0.78125-1.7461 1.7461-1.7461zm2.8555 9.6914c-0.66016-0.68359-0.65234-1.7656 0.015625-2.4414 0.67188-0.67188 1.7539-0.68359 2.4414-0.027344l0.57031 0.56641 2.5664-2.1367c0.73828-0.61328 1.832-0.51172 2.4453 0.22656 0.61328 0.73828 0.51172 1.832-0.22266 2.4453l-3.7109 3.0938h-0.003906c-0.68359 0.63281-1.7461 0.61719-2.4062-0.042968l-1.6914-1.6836zm9.043 13.484h-10.152v10.152h10.152zm-11.898-3.4922h13.641c0.46484 0 0.91016 0.18359 1.2383 0.51172 0.32422 0.32812 0.50781 0.76953 0.50781 1.2344v13.641c0 0.96484-0.78125 1.7461-1.7461 1.7461h-13.641c-0.96484 0-1.7461-0.78125-1.7461-1.7461v-13.641c0-0.96484 0.78125-1.7461 1.7461-1.7461zm2.8555 9.6914c-0.68359-0.67578-0.6875-1.7812-0.007813-2.4609 0.67969-0.68359 1.7812-0.6875 2.4648-0.011718l0.57031 0.56641 2.5664-2.1367v0.003906c0.35156-0.30859 0.8125-0.45703 1.2773-0.42188 0.46875 0.039063 0.89844 0.26172 1.1992 0.62109 0.29688 0.35938 0.4375 0.82422 0.39062 1.2891-0.046875 0.46484-0.28125 0.89063-0.64453 1.1836l-3.7109 3.0938h-0.003906c-0.68359 0.63281-1.7461 0.61328-2.4062-0.046875l-1.6914-1.6836zm9.043 13.484h-10.152v10.156h10.152zm-11.898-3.4922 13.641 0.003907c0.96484 0 1.7461 0.77734 1.7461 1.7422v13.645c0 0.46094-0.18359 0.90625-0.50781 1.2344-0.32812 0.32812-0.77344 0.51172-1.2383 0.51172h-13.641c-0.96484 0-1.7461-0.78516-1.7461-1.7461v-13.645c0-0.96484 0.78125-1.7461 1.7461-1.7461zm2.8555 9.6914v0.003906c-0.66016-0.68359-0.65234-1.7695 0.015625-2.4414 0.67188-0.67188 1.7539-0.68359 2.4414-0.027344l0.57031 0.56641 2.5664-2.1367c0.35156-0.30469 0.8125-0.45703 1.2773-0.41797 0.46875 0.035157 0.89844 0.26172 1.1992 0.62109 0.29688 0.35938 0.4375 0.82422 0.39062 1.2891-0.046875 0.46484-0.28125 0.89062-0.64453 1.1797l-3.7109 3.0938h-0.003906c-0.68359 0.63281-1.7461 0.61328-2.4062-0.042968l-1.6953-1.6836zm20.668-2.6094c-0.47266 0.011719-0.92969-0.16797-1.2656-0.49609-0.33594-0.32812-0.52734-0.77734-0.52734-1.25 0-0.47266 0.19141-0.92188 0.52734-1.25 0.33594-0.32812 0.79297-0.50781 1.2656-0.49609h20.863c0.47266-0.011719 0.92578 0.16797 1.2656 0.49609 0.33594 0.32812 0.52734 0.77734 0.52734 1.25 0 0.47266-0.19141 0.92188-0.52734 1.25-0.33984 0.32812-0.79297 0.50781-1.2656 0.49609zm0 6.4648c-0.47266 0.011719-0.92969-0.16406-1.2656-0.49609-0.33594-0.32812-0.52734-0.77734-0.52734-1.25 0-0.47266 0.19141-0.92187 0.52734-1.25 0.33594-0.32812 0.79297-0.50781 1.2656-0.49609h20.863c0.47266-0.011719 0.92578 0.16797 1.2656 0.49609 0.33594 0.32813 0.52734 0.77734 0.52734 1.25 0 0.47266-0.19141 0.92188-0.52734 1.25-0.33984 0.33203-0.79297 0.50781-1.2656 0.49609zm60.742-10.453 4.3398-4.25-3.0117-3.0703v-0.003907c-0.57812-0.58984-0.66406-1.5039-0.20312-2.1914 1.5117-2.25 2.582-4.7695 3.1562-7.4219 0.17578-0.80469 0.89062-1.3789 1.7109-1.3711l4.3203 0.042968 0.0625-6.0781-4.1719-0.046875c-0.87891 0.058594-1.6602-0.54297-1.8281-1.4062-0.51953-2.6602-1.5391-5.1992-3.0039-7.4844-0.44141-0.69141-0.33984-1.5977 0.24219-2.1758l3.0781-3.0117-4.25-4.3438-3.0703 3.0117c-0.58984 0.57812-1.5039 0.66406-2.1875 0.20312-2.2539-1.5117-4.7734-2.582-7.4258-3.1562-0.80469-0.17578-1.3789-0.89062-1.3711-1.7148l0.042969-4.3203-6.0781-0.0625-0.042968 4.1836c0.058594 0.875-0.54297 1.6602-1.4062 1.8281-2.6641 0.51953-5.2031 1.5352-7.4844 3.0039-0.69141 0.44141-1.5977 0.33984-2.1758-0.24609l-3.0195-3.082-4.3398 4.25 3.0117 3.0703 0.003907 0.003907c0.57812 0.58984 0.66016 1.5039 0.20312 2.1875-0.70703 1.0547-1.3203 2.1719-1.832 3.3359-0.046875 0.23047-0.13672 0.44531-0.26562 0.64062-0.44922 1.1211-0.80469 2.2773-1.0586 3.457-0.17578 0.80469-0.89062 1.375-1.7148 1.3711l-4.332-0.054687-0.0625 6.0781 4.1836 0.042969-0.003906 0.003907c0.875-0.058594 1.6602 0.54297 1.8242 1.4062 0.52734 2.6602 1.5508 5.1953 3.0156 7.4727 0.44531 0.69531 0.34375 1.6016-0.24219 2.1797l-3.0859 3.0234 4.25 4.3398 3.0703-3.0117 0.003906-0.003906c0.58984-0.57813 1.5039-0.66406 2.1875-0.20313 2.2539 1.5117 4.7734 2.582 7.4258 3.1562 0.80469 0.17578 1.3789 0.89453 1.3672 1.7188l-0.019531 4.3203 6.0508 0.0625 0.042969-4.1836h0.003906c-0.058594-0.875 0.54688-1.6562 1.4102-1.8242 2.6602-0.51953 5.1992-1.5391 7.4805-3.0039 0.69141-0.44531 1.6016-0.34375 2.1758 0.24219l3.0195 3.082zm-27.695-44.312v-8.2227c0-1.6484-1.3281-2.9922-2.9766-3.0117h-13.324v-3.4805h19.25c0.58594 0.007812 1.0625 0.48047 1.0664 1.0703v12.145c-1.3789 0.38672-2.7227 0.88672-4.0156 1.5zm-3.4922 45.852v28.75h-45.629v-10.871c0-0.95312-0.77344-1.7305-1.7266-1.7383l-11.758-0.12891-0.003907-69.609h12.859c0.40234 1.9883 2.1641 3.4102 4.1914 3.3867h25.012c2.0273 0.023438 3.7891-1.3945 4.1914-3.3867h12.863v6.5625l-1.3281-1.3555c-0.67188-0.68359-1.7734-0.69141-2.4609-0.019531l-6.8203 6.6875c-0.35156 0.34375-0.54297 0.82031-0.51953 1.3086h-18.426c-0.47266-0.011719-0.92969 0.16797-1.2656 0.49609-0.33594 0.32812-0.52734 0.78125-0.52734 1.25 0 0.47266 0.19141 0.92188 0.52734 1.2539 0.33594 0.32812 0.79297 0.50391 1.2656 0.49219h21.211l0.97656 0.99609c-0.38281 0.64844-0.73437 1.3086-1.0547 1.9766l-21.133 0.003906c-0.47266-0.015625-0.92969 0.16406-1.2656 0.49219-0.33594 0.32812-0.52734 0.78125-0.52734 1.25 0 0.47266 0.19141 0.92578 0.52734 1.2539 0.33594 0.32812 0.79297 0.50391 1.2656 0.49219h19.781c-0.054687 0.1875-0.11328 0.375-0.16406 0.56641l-4.6797-0.046875v-0.003906c-0.46094-0.003907-0.90625 0.17578-1.2344 0.5-0.32813 0.32422-0.51563 0.76562-0.51953 1.2266l-0.078125 7.4883h-13.105c-0.47266-0.011719-0.92969 0.16406-1.2656 0.49219-0.33594 0.32812-0.52734 0.78125-0.52734 1.2539 0 0.46875 0.19141 0.92188 0.52734 1.25 0.33594 0.32812 0.79297 0.50781 1.2656 0.49219h13.809c0.29297 0.21094 0.64062 0.32813 1.0039 0.33203l4.668 0.046875c0.22656 0.87891 0.5 1.7461 0.82031 2.5977h-20.301c-0.47266-0.011719-0.92969 0.16406-1.2656 0.49219-0.33594 0.33203-0.52734 0.78125-0.52734 1.2539 0 0.46875 0.19141 0.92188 0.52734 1.25 0.33594 0.32812 0.79297 0.50781 1.2656 0.49609h21.922l-3.3359 3.2734c-0.68359 0.67578-0.69531 1.7773-0.019531 2.4609l6.6875 6.8281h-0.003907c0.32422 0.32813 0.76563 0.51563 1.2266 0.51953s0.90625-0.17578 1.2344-0.5l1.8438-1.8047zm7.5078 6.125v30.047c-0.003906 0.58594-0.48047 1.0625-1.0664 1.0664h-72.004c-0.58984-0.003906-1.0664-0.48047-1.0664-1.0664v-95.668c0.003906-0.58984 0.48047-1.0625 1.0664-1.0703h19.25v3.4805h-13.324c-1.6484 0.019532-2.9766 1.3633-2.9766 3.0117v71.77c0 0.47656 0.19531 0.93359 0.54297 1.2617l13.406 12.715c0.33203 0.36328 0.79687 0.57031 1.2891 0.56641h47.891c1.6484-0.015625 2.9766-1.3633 2.9766-3.0117v-29.629c1.293 0.61719 2.6367 1.1211 4.0156 1.5078v5.0234zm31.695-10.652-6.8281 6.6875h0.003906c-0.6875 0.67188-1.7891 0.66406-2.4609-0.019531l-3.2734-3.3438c-1.9141 1.0781-3.957 1.9023-6.0859 2.4453l-0.046875 4.668v0.003906c-0.007813 0.96094-0.79297 1.7305-1.7539 1.7266l-7.7578-0.082031v28.613c-0.003906 2.5156-2.043 4.5508-4.5586 4.5586h-72.004c-2.5156-0.007812-4.5547-2.043-4.5586-4.5586v-95.668c0.003906-2.5156 2.043-4.5547 4.5586-4.5586h19.355c0.5-1.8711 2.2031-3.1641 4.1406-3.1445h3.2773c1.1328-6.7617 10.113-9.6641 15.488-4.7578 1.3906 1.2461 2.3164 2.9219 2.6406 4.7578h3.6094c1.9336-0.019531 3.6367 1.2734 4.1367 3.1445h19.355-0.003906c2.5156 0.003906 4.5547 2.043 4.5625 4.5586v5.6211l8.3867 0.085937c0.95703 0.007813 1.7305 0.78906 1.7227 1.75l-0.046875 4.6797c2.1133 0.58594 4.1445 1.4531 6.0312 2.5703l3.3359-3.2695h0.003906c0.32812-0.32422 0.77344-0.50391 1.2344-0.5 0.46094 0.003906 0.90234 0.19141 1.2266 0.51953l6.6875 6.8281c0.67188 0.6875 0.66406 1.7852-0.023437 2.4609l-3.3438 3.2734h0.003906c1.0781 1.9141 1.9023 3.9648 2.4492 6.0938l4.668 0.046875h0.003906c0.95312 0.011719 1.7227 0.78906 1.7188 1.7422l-0.097656 9.5547v0.003907c-0.003907 0.46094-0.19141 0.90234-0.51953 1.2266-0.32812 0.32031-0.77344 0.5-1.2344 0.49609l-4.6797-0.046875c-0.58984 2.1133-1.4531 4.1406-2.5703 6.0312l3.2695 3.3438c0.32422 0.32812 0.50391 0.77344 0.5 1.2344-0.003906 0.46094-0.19141 0.90234-0.52344 1.2266zm-12.762-18.465c-0.050781 4.9102-3.0586 9.3086-7.6172 11.141-4.5625 1.832-9.7734 0.73828-13.211-2.7734-3.4375-3.5117-4.4219-8.75-2.4922-13.27 1.9297-4.5195 6.3906-7.4297 11.305-7.3789 6.707 0.074219 12.086 5.5703 12.016 12.281zm-0.98828-11.066 0.003906-0.003906c2.8984 2.9609 4.5039 6.9531 4.4609 11.098-0.039063 4.1406-1.7266 8.0977-4.6875 11-2.9609 2.8984-6.9492 4.5039-11.094 4.4648-4.1445-0.042969-8.1016-1.7305-11-4.6875-2.9023-2.9609-4.5078-6.9531-4.4648-11.098 0.039063-4.1406 1.7266-8.0977 4.6875-11 2.9609-2.8984 6.9492-4.5039 11.094-4.4609 4.1445 0.039062 8.1016 1.7266 11.004 4.6836zm-11.641 5.9883 0.003906-0.003906c0.26953-0.89844 1.207-1.4219 2.1172-1.1797 0.91016 0.24219 1.4609 1.1602 1.25 2.0781l-2.4102 8.9961c-0.26953 0.89844-1.207 1.4219-2.1172 1.1797-0.91016-0.24219-1.4609-1.1602-1.25-2.0742l2.4102-8.9961zm-3.6719 7.2812 0.003906-0.003906c0.67969 0.67969 0.67969 1.7852 0 2.4688-0.68359 0.67969-1.7891 0.67969-2.4688 0l-3.5664-3.5664c-0.67969-0.68359-0.67969-1.7852 0-2.4688l3.5664-3.5664-0.003906 0.003907c0.68359-0.68359 1.7891-0.68359 2.4688 0 0.68359 0.67969 0.68359 1.7852 0 2.4648l-2.3281 2.332 2.332 2.332zm10.773 2.4688v-0.003906c-0.67969 0.67969-1.7852 0.67969-2.4688 0-0.67969-0.68359-0.68359-1.7891 0-2.4688l2.332-2.332-2.332-2.332c-0.68359-0.67969-0.68359-1.7852 0-2.4648 0.67969-0.68359 1.7852-0.68359 2.4688 0l3.5664 3.5664-0.003907-0.003906c0.68359 0.68359 0.68359 1.7852 0 2.4688z" fill="#682079" fill-rule="evenodd"/>
</svg>
